#!OML:ASF E:/inclinewalkrobotboard/Project1/Captureday1/Session1/subject1.ASF
:FULLY-SPECIFIED
:DEGREES
51
root 0 0 0 -3.378359888256122 -3.8891104401441523 -2.757463298668596
lowerback 9.61246464310564 -0.08756125525977154 -0.21360368663108198
upperback -1.8928764932796829 -0.06704543318029521 1.360805533155799
thorax -7.391181525498764 -0.04783024371842903 1.5690703983651058
lowerneck -16.597905615389102 -1.7370400045092784 1.0381384530679143
upperneck 18.774216903064787 -2.4276810727373785 -1.562979174075133
head 9.067310527340926 -1.1019766584476194 -0.9810817658336766
rclavicle -4.840744977241856E-16 1.1829950236326281E-15
rhumerus -25.8525867141006 -28.454895991513254 -79.26249753845072
rradius 38.04360742138293
rwrist 21.777646827193262
rhand -20.509444435286834 8.384195230252473
rfingers 7.125019999999972
rthumb 5.847947346934445 -21.66758710390168
lclavicle 5.165453446613111E-16 -6.458833359013576E-16
lhumerus -37.6553591585858 3.192104710038268 77.82185179477855
lradius 28.948690228258183
lwrist 5.915427414197078
lhand -26.82829814170607 24.31974949178163
lfingers 7.1250199999999655
lthumb -0.21703686388893306 54.29462630551744
rfemur -10.571960897186354 3.838990743564059 20.11937632177278
rtibia 29.56931777649814
rfoot -6.383955817164829 -5.218733279735578
rtoes 3.053429049412668
lfemur -14.9099625840266 2.463315960776189 -13.879192632731927
ltibia 34.68470416208201
lfoot -9.132749613366286 -0.26081628222146813
ltoes -30.333344379498783
52
root 0 0 0 -3.352829179563525 -3.874955540112922 -2.752743223228393
lowerback 9.639786918146662 -0.1068548248645268 -0.20949026342751287
upperback -1.8297125592976584 -0.09305014726813976 1.3701583867729814
thorax -7.338604656494429 -0.0607314993265321 1.5796753704830273
lowerneck -16.502792090155403 -1.7202986122893007 1.0464333307658409
upperneck 18.627641381186436 -2.39087372217064 -1.579925524968574
head 8.990450604957163 -1.090294967401804 -0.9824519501229918
rclavicle -6.626566421535197E-16 1.1370845496471296E-15
rhumerus -25.692373706358907 -28.21368030728729 -79.2394813787112
rradius 38.41416584824462
rwrist 21.872247661369382
rhand -20.549153002323276 8.445007584489648
rfingers 7.125019999999972
rthumb 5.810553589865379 -21.61159250729804
lclavicle 4.106481931722288E-16 -7.188506656025471E-16
lhumerus -37.66436959638742 3.081993059304362 77.80009293657126
lradius 29.18906631244026
lwrist 6.074403166715549
lhand -26.837919052566434 24.27686486901175
lfingers 7.1250199999999655
lthumb -0.22710703602562 54.25111033630468
rfemur -10.584467842028511 3.848476214208489 20.15208583784855
rtibia 29.591677291181632
rfoot -6.40690258862881 -5.229565676311794
rtoes 3.0502233350549384
lfemur -15.036372556276358 2.548999109187558 -13.836101908593523
ltibia 34.7514181371556
lfoot -9.079058704867421 -0.2954757754664432
ltoes -30.452183791950205
53
root 0 0 0 -3.3372487646599245 -3.8717494989816097 -2.756314647684576
lowerback 9.654690455973403 -0.11228392824251154 -0.2016911002146261
upperback -1.8029490944988298 -0.09988493182387015 1.373127098569442
thorax -7.318101681521429 -0.0643010457294424 1.5789323924038055
lowerneck -16.45374428257991 -1.7133887512125263 1.0513261892455668
upperneck 18.537837941396234 -2.375258980498035 -1.584683297653261
head 8.946763293887535 -1.0856205562334473 -0.9820708868213015
rclavicle -7.894525133434735E-16 1.1258424807915934E-15
rhumerus -25.517191805381824 -28.03069748164848 -79.1763205443278
rradius 38.78094463521635
rwrist 21.912436825326683
rhand -20.5864900494079 8.481169476813022
rfingers 7.125019999999972
rthumb 5.775279650873851 -21.580500458247442
lclavicle 3.9895330383003615E-16 -7.638564146469616E-16
lhumerus -37.72688875198859 2.9597291054822485 77.74699418340398
lradius 29.512164795878206
lwrist 6.280020620867246
lhand -26.83821435406347 24.21421320715406
lfingers 7.1250199999999655
lthumb -0.22845053346092925 54.186955480209456
rfemur -10.591780308657007 3.856262829973845 20.176202129421682
rtibia 29.601663958332637
rfoot -6.426390040850956 -5.237893668668828
rtoes 3.0459060845668793
lfemur -15.119094517506825 2.601790718402742 -13.795129539667716
ltibia 34.78495673486047
lfoot -9.064158955132218 -0.2993398729108878
ltoes -30.590262098091845
54
root 0 0 0 -3.3263159853246815 -3.877512453201369 -2.767877662013058
lowerback 9.67119388938402 -0.10699923559542479 -0.18835260843252288
upperback -1.7937752825484405 -0.09148811705446014 1.372782128238663
thorax -7.317132815040605 -0.06052130959299895 1.5693810176166427
lowerneck -16.42585008260226 -1.7141004840037868 1.053704052922269
upperneck 18.487002440347332 -2.3746449013472057 -1.580811028883763
head 8.923653191685329 -1.0862146310301461 -0.9804098625370767
rclavicle -9.238921052297683E-16 1.1647805593704473E-15
rhumerus -25.242605666191338 -27.768082774186567 -79.04158235803278
rradius 39.37692209933448
rwrist 21.86655321047473
rhand -20.64472442425273 8.514565698807806
rfingers 7.125019999999972
rthumb 5.720132255104347 -21.55450502971467
lclavicle 5.353662689656588E-16 -8.25995265071401E-16
lhumerus -37.913802947233734 2.677483451827111 77.6019565808073
lradius 30.301006725310465
lwrist 6.780478217461344
lhand -26.83198203106094 24.067908323028234
lfingers 7.1250199999999655
lthumb -0.2250675029246585 54.036166382891594
rfemur -10.594100456552859 3.865723924869518 20.19901928858534
rtibia 29.593637572800706
rfoot -6.45204435977163 -5.246958702053191
rtoes 3.0362772068527812
lfemur -15.17084697690348 2.6315171513558546 -13.737372617593326
ltibia 34.78229884740616
lfoot -9.105920412845656 -0.25698366493486224
ltoes -30.830678308083208
55
root 0 0 0 -3.3262635303645034 -3.881610903642188 -2.7726104952195314
lowerback 9.676085142059145 -0.10292474847354627 -0.18592495109424512
upperback -1.8017711909776357 -0.08564863550037272 1.3710662122732107
thorax -7.328525553218026 -0.05777384494743709 1.5651865117969401
lowerneck -16.430275978980514 -1.7166741476291822 1.0556426092564442
upperneck 18.47715810896847 -2.3794377055534133 -1.5789526614543659
head 8.922834370856092 -1.0881112761271172 -0.9804586707631204
rclavicle -9.704530853981271E-16 1.174520761231331E-15
rhumerus -25.053287331765286 -27.71917760290566 -78.91193271760216
rradius 39.68436138286873
rwrist 21.8223643498271
rhand -20.66872515009351 8.492758428357467
rfingers 7.125019999999972
rthumb 5.697323879202314 -21.58130267087678
lclavicle 6.636252184152964E-16 -8.341935270721324E-16
lhumerus -38.05678859615801 2.5400888493708305 77.4988253978911
lradius 30.743436329267432
lwrist 7.054232751350261
lhand -26.81980480019461 23.979498075470158
lfingers 7.125019999999966
lthumb -0.21486065121863973 53.94528830628903
rfemur -10.596417336441608 3.8695067156038867 20.20635691540782
rtibia 29.58687911844335
rfoot -6.462191252579453 -5.2508325394301485
rtoes 3.030884625960412
lfemur -15.154925009758358 2.6203332273046973 -13.721504851538963
ltibia 34.76136084667761
lfoot -9.143057961776735 -0.2253498139932142
ltoes -30.9188024493583
